<svg width="61" height="61" viewBox="0 0 61 61" fill="none" xmlns="http://www.w3.org/2000/svg">
<path fill-rule="evenodd" clip-rule="evenodd" d="M30.5 57.2383C45.4117 57.2383 57.5 45.15 57.5 30.2383C57.5 15.3266 45.4117 3.23828 30.5 3.23828C15.5883 3.23828 3.5 15.3266 3.5 30.2383C3.5 45.15 15.5883 57.2383 30.5 57.2383ZM30.5 60.2383C47.0685 60.2383 60.5 46.8068 60.5 30.2383C60.5 13.6697 47.0685 0.238281 30.5 0.238281C13.9315 0.238281 0.5 13.6697 0.5 30.2383C0.5 46.8068 13.9315 60.2383 30.5 60.2383Z" fill="white"/>
<path d="M35.2656 21.7344H43.0586V23.625H35.2656V21.7344ZM27.457 29.2148C29.1797 28.3906 30.082 27.1367 30.082 25.1992C30.082 21.3672 27.2305 20.4375 23.9375 20.4375H14.875V39.6719H24.1914C27.6836 39.6719 30.9609 37.9922 30.9609 34.0859C30.9609 31.6719 29.8203 29.8867 27.457 29.2148ZM19.1016 23.7188H23.0664C24.5938 23.7188 25.9648 24.1445 25.9648 25.918C25.9648 27.5508 24.8984 28.207 23.3867 28.207H19.1016V23.7188ZM23.6133 36.4063H19.0977V31.1094H23.7031C25.5625 31.1094 26.7383 31.8867 26.7383 33.8555C26.7383 35.793 25.3359 36.4063 23.6133 36.4063ZM46.1055 32.9102C46.1055 28.7891 43.6953 25.3555 39.3359 25.3555C35.0977 25.3555 32.2148 28.5469 32.2148 32.7305C32.2148 37.0664 34.9453 40.043 39.3359 40.043C42.6602 40.043 44.8125 38.5469 45.8477 35.3555H42.4766C42.1094 36.5469 40.6172 37.1719 39.457 37.1719C37.2148 37.1719 36.043 35.8594 36.043 33.6289H46.0781C46.0898 33.3984 46.1055 33.1563 46.1055 32.9102ZM36.043 31.2148C36.1641 29.3828 37.3867 28.2383 39.2148 28.2383C41.1367 28.2383 42.0977 29.3672 42.2656 31.2148H36.043Z" fill="white"/>
</svg>
