<svg width="61" height="61" viewBox="0 0 61 61" fill="none" xmlns="http://www.w3.org/2000/svg">
<path fill-rule="evenodd" clip-rule="evenodd" d="M30.5 57.2383C45.4117 57.2383 57.5 45.15 57.5 30.2383C57.5 15.3266 45.4117 3.23828 30.5 3.23828C15.5883 3.23828 3.5 15.3266 3.5 30.2383C3.5 45.15 15.5883 57.2383 30.5 57.2383ZM30.5 60.2383C47.0685 60.2383 60.5 46.8068 60.5 30.2383C60.5 13.6697 47.0685 0.238281 30.5 0.238281C13.9315 0.238281 0.5 13.6697 0.5 30.2383C0.5 46.8068 13.9315 60.2383 30.5 60.2383Z" fill="white"/>
<path d="M43.8333 40.2384H40.5V25.655L30.5 31.905L20.5 25.655V40.2384H17.1666V20.2384H19.1666L30.5 27.3217L41.8333 20.2384H43.8333V40.2384ZM43.8333 16.905H17.1666C15.3166 16.905 13.8333 18.3884 13.8333 20.2384V40.2384C13.8333 41.1224 14.1845 41.9703 14.8096 42.5954C15.4347 43.2205 16.2826 43.5717 17.1666 43.5717H43.8333C44.7174 43.5717 45.5652 43.2205 46.1903 42.5954C46.8155 41.9703 47.1666 41.1224 47.1666 40.2384V20.2384C47.1666 19.3543 46.8155 18.5065 46.1903 17.8813C45.5652 17.2562 44.7174 16.905 43.8333 16.905Z" fill="white"/>
</svg>
