<svg width="61" height="61" viewBox="0 0 61 61" fill="none" xmlns="http://www.w3.org/2000/svg">
<path fill-rule="evenodd" clip-rule="evenodd" d="M30.5 57.2383C45.4117 57.2383 57.5 45.15 57.5 30.2383C57.5 15.3266 45.4117 3.23828 30.5 3.23828C15.5883 3.23828 3.5 15.3266 3.5 30.2383C3.5 45.15 15.5883 57.2383 30.5 57.2383ZM30.5 60.2383C47.0685 60.2383 60.5 46.8068 60.5 30.2383C60.5 13.6697 47.0685 0.238281 30.5 0.238281C13.9315 0.238281 0.5 13.6697 0.5 30.2383C0.5 46.8068 13.9315 60.2383 30.5 60.2383Z" fill="white"/>
<path d="M30.4844 13.0205C20.8242 13.0166 13 20.8369 13 30.4893C13 38.1221 17.8945 44.6104 24.7109 46.9932C25.6289 47.2236 25.4883 46.5713 25.4883 46.126V43.0986C20.1875 43.7197 19.9727 40.2119 19.6172 39.626C18.8984 38.3994 17.1992 38.0869 17.707 37.501C18.9141 36.8799 20.1445 37.6572 21.5703 39.7627C22.6016 41.29 24.6133 41.0322 25.6328 40.7783C25.8555 39.8604 26.332 39.04 26.9883 38.4033C21.4961 37.4189 19.207 34.0674 19.207 30.083C19.207 28.1494 19.8438 26.3721 21.0938 24.9385C20.2969 22.5752 21.168 20.5518 21.2852 20.251C23.5547 20.0479 25.9141 21.876 26.0977 22.0205C27.3867 21.6729 28.8594 21.4893 30.5078 21.4893C32.1641 21.4893 33.6406 21.6807 34.9414 22.0322C35.3828 21.6963 37.5703 20.126 39.6797 20.3174C39.793 20.6182 40.6445 22.5947 39.8945 24.9268C41.1602 26.3643 41.8047 28.1572 41.8047 30.0947C41.8047 34.0869 39.5 37.4424 33.9922 38.4111C34.4639 38.8751 34.8385 39.4284 35.0941 40.0387C35.3496 40.649 35.481 41.3042 35.4805 41.9658V46.3604C35.5117 46.7119 35.4805 47.0596 36.0664 47.0596C42.9844 44.7275 47.9648 38.1924 47.9648 30.4932C47.9648 20.8369 40.1367 13.0205 30.4844 13.0205Z" fill="white"/>
</svg>
