<svg width="61" height="61" viewBox="0 0 61 61" fill="none" xmlns="http://www.w3.org/2000/svg">
<path fill-rule="evenodd" clip-rule="evenodd" d="M30.5 57.2383C45.4117 57.2383 57.5 45.15 57.5 30.2383C57.5 15.3266 45.4117 3.23828 30.5 3.23828C15.5883 3.23828 3.5 15.3266 3.5 30.2383C3.5 45.15 15.5883 57.2383 30.5 57.2383ZM30.5 60.2383C47.0685 60.2383 60.5 46.8068 60.5 30.2383C60.5 13.6697 47.0685 0.238281 30.5 0.238281C13.9315 0.238281 0.5 13.6697 0.5 30.2383C0.5 46.8068 13.9315 60.2383 30.5 60.2383Z" fill="white"/>
<g clip-path="url(#clip0)">
<path d="M30.5079 21.2542C25.5391 21.2542 21.5313 25.262 21.5313 30.2307C21.5313 35.1995 25.5391 39.2073 30.5079 39.2073C35.4766 39.2073 39.4844 35.1995 39.4844 30.2307C39.4844 25.262 35.4766 21.2542 30.5079 21.2542ZM30.5079 36.0667C27.2969 36.0667 24.6719 33.4495 24.6719 30.2307C24.6719 27.012 27.2891 24.3948 30.5079 24.3948C33.7266 24.3948 36.3438 27.012 36.3438 30.2307C36.3438 33.4495 33.7188 36.0667 30.5079 36.0667ZM41.9454 20.887C41.9454 22.051 41.0079 22.9807 39.8516 22.9807C38.6876 22.9807 37.7579 22.0432 37.7579 20.887C37.7579 19.7307 38.6954 18.7932 39.8516 18.7932C41.0079 18.7932 41.9454 19.7307 41.9454 20.887ZM47.8907 23.012C47.7579 20.2073 47.1173 17.7229 45.0626 15.676C43.0157 13.6292 40.5313 12.9885 37.7266 12.8479C34.836 12.6838 26.1719 12.6838 23.2813 12.8479C20.4844 12.9807 18.0001 13.6213 15.9454 15.6682C13.8907 17.7151 13.2579 20.1995 13.1172 23.0042C12.9532 25.8948 12.9532 34.5588 13.1172 37.4495C13.2501 40.2541 13.8907 42.7385 15.9454 44.7854C18.0001 46.8323 20.4766 47.4729 23.2813 47.6135C26.1719 47.7776 34.836 47.7776 37.7266 47.6135C40.5313 47.4807 43.0157 46.8401 45.0626 44.7854C47.1094 42.7385 47.7501 40.2541 47.8907 37.4495C48.0548 34.5588 48.0548 25.9026 47.8907 23.012ZM44.1563 40.551C43.5469 42.0823 42.3673 43.262 40.8282 43.8792C38.5235 44.7932 33.0548 44.5823 30.5079 44.5823C27.961 44.5823 22.4844 44.7854 20.1876 43.8792C18.6563 43.2698 17.4766 42.0901 16.8594 40.551C15.9454 38.2463 16.1563 32.7776 16.1563 30.2307C16.1563 27.6838 15.9532 22.2073 16.8594 19.9104C17.4688 18.3792 18.6485 17.1995 20.1876 16.5823C22.4922 15.6682 27.961 15.8792 30.5079 15.8792C33.0548 15.8792 38.5313 15.676 40.8282 16.5823C42.3594 17.1916 43.5391 18.3713 44.1563 19.9104C45.0704 22.2151 44.8594 27.6838 44.8594 30.2307C44.8594 32.7776 45.0704 38.2542 44.1563 40.551Z" fill="white"/>
</g>
<defs>
<clipPath id="clip0">
<rect width="35" height="40" fill="white" transform="translate(13 10.2383)"/>
</clipPath>
</defs>
</svg>
