<svg width="61" height="61" viewBox="0 0 61 61" fill="none" xmlns="http://www.w3.org/2000/svg">
<path fill-rule="evenodd" clip-rule="evenodd" d="M30.5 57.2383C45.4117 57.2383 57.5 45.15 57.5 30.2383C57.5 15.3266 45.4117 3.23828 30.5 3.23828C15.5883 3.23828 3.5 15.3266 3.5 30.2383C3.5 45.15 15.5883 57.2383 30.5 57.2383ZM30.5 60.2383C47.0685 60.2383 60.5 46.8068 60.5 30.2383C60.5 13.6697 47.0685 0.238281 30.5 0.238281C13.9315 0.238281 0.5 13.6697 0.5 30.2383C0.5 46.8068 13.9315 60.2383 30.5 60.2383Z" fill="white"/>
<path d="M30.525 11.04C19.921 11.04 11.325 19.636 11.325 30.24C11.325 40.844 19.921 49.44 30.525 49.44C41.129 49.44 49.725 40.844 49.725 30.24C49.725 19.636 41.129 11.04 30.525 11.04ZM25.825 38.198H21.937V25.686H25.825V38.198ZM23.857 24.15C22.629 24.15 21.835 23.28 21.835 22.204C21.835 21.106 22.653 20.262 23.907 20.262C25.161 20.262 25.929 21.106 25.953 22.204C25.953 23.28 25.161 24.15 23.857 24.15ZM40.025 38.198H36.137V31.264C36.137 29.65 35.573 28.554 34.167 28.554C33.093 28.554 32.455 29.296 32.173 30.01C32.069 30.264 32.043 30.624 32.043 30.982V38.196H28.153V29.676C28.153 28.114 28.103 26.808 28.051 25.684H31.429L31.607 27.422H31.685C32.197 26.606 33.451 25.402 35.549 25.402C38.107 25.402 40.025 27.116 40.025 30.8V38.198Z" fill="white"/>
</svg>
