<svg width="51" height="51" viewBox="0 0 51 51" fill="none" xmlns="http://www.w3.org/2000/svg">
<rect x="0.5" y="0.525513" width="50" height="50" rx="25" fill="#1E1E1E"/>
<path d="M27.6389 14.108V26.5849C27.6389 31.7538 23.4367 35.9433 18.2509 35.9433C13.0651 35.9433 8.86292 31.7538 8.86292 26.5849V14.108C8.86292 13.2779 9.19256 12.4819 9.77932 11.8949C10.3661 11.308 11.1619 10.9783 11.9917 10.9783C12.8215 10.9783 13.6173 11.308 14.2041 11.8949C14.7909 12.4819 15.1205 13.2779 15.1205 14.108V26.5849C15.1298 27.4089 15.4636 28.196 16.0494 28.7753C16.6352 29.3547 17.4257 29.6797 18.2495 29.6797C19.0733 29.6797 19.8639 29.3547 20.4497 28.7753C21.0354 28.196 21.3692 27.4089 21.3785 26.5849V14.108C21.3785 13.2779 21.7081 12.4819 22.2949 11.8949C22.8817 11.308 23.6775 10.9783 24.5073 10.9783C25.3371 10.9783 26.1329 11.308 26.7197 11.8949C27.3065 12.4819 27.6361 13.2779 27.6361 14.108H27.6389Z" fill="white"/>
<path d="M36.9674 17.1704C38.6954 17.1704 40.0962 15.7738 40.0962 14.051C40.0962 12.3283 38.6954 10.9317 36.9674 10.9317C35.2394 10.9317 33.8386 12.3283 33.8386 14.051C33.8386 15.7738 35.2394 17.1704 36.9674 17.1704Z" fill="white"/>
<path d="M36.8519 20.3033C33.7359 20.3033 33.6768 23.4274 33.6768 23.4274V35.01C33.4358 34.3222 32.9625 33.7401 32.3385 33.364C31.7145 32.9878 30.9788 32.8412 30.2583 32.9494C29.5379 33.0575 28.8777 33.4137 28.3915 33.9566C27.9054 34.4994 27.6239 35.1949 27.5954 35.9231H27.5482C27.5482 35.9371 27.5482 35.9499 27.5482 35.9631C27.5482 39.3597 30.2851 42.117 33.6788 42.1602C33.7076 42.1602 33.7363 42.1602 33.7655 42.1602C36.9115 42.1602 39.5117 39.8313 39.9248 36.8078L39.9827 23.421C39.9827 23.421 39.9692 20.3033 36.8519 20.3033Z" fill="white"/>
</svg>
