<svg width="31" height="29" viewBox="0 0 31 29" fill="none" xmlns="http://www.w3.org/2000/svg">
<g opacity="0.5">
<path fill-rule="evenodd" clip-rule="evenodd" d="M2.5851 12.6246C2.98836 12.2213 3.64217 12.2213 4.04543 12.6246L15.5 24.0792L26.9547 12.6246C27.3579 12.2213 28.0117 12.2213 28.415 12.6246C28.8183 13.0278 28.8183 13.6817 28.415 14.0849L16.2302 26.2697C15.827 26.673 15.1731 26.673 14.7699 26.2697L2.5851 14.0849C2.18184 13.6817 2.18184 13.0278 2.5851 12.6246Z" fill="#1E1E1E"/>
<path fill-rule="evenodd" clip-rule="evenodd" d="M1.17088 11.2104C2.35519 10.0261 4.27533 10.0261 5.45964 11.2104L15.5 21.2508L25.5404 11.2104C26.7248 10.0261 28.6449 10.0261 29.8292 11.2104C31.0135 12.3947 31.0135 14.3148 29.8292 15.4991L17.6444 27.6839C16.4601 28.8682 14.54 28.8682 13.3557 27.6839L1.17088 15.4991C-0.013423 14.3148 -0.013423 12.3947 1.17088 11.2104Z" fill="#1E1E1E"/>
<path fill-rule="evenodd" clip-rule="evenodd" d="M7.64962 1.92507C7.89474 1.67995 8.29217 1.67995 8.53729 1.92507L15.5001 8.88784L22.4628 1.92507C22.708 1.67995 23.1054 1.67995 23.3505 1.92507C23.5956 2.17019 23.5956 2.56762 23.3505 2.81274L15.9439 10.2193C15.6988 10.4645 15.3014 10.4645 15.0562 10.2193L7.64962 2.81274C7.40449 2.56762 7.40449 2.17019 7.64962 1.92507Z" fill="#1E1E1E"/>
<path fill-rule="evenodd" clip-rule="evenodd" d="M6.78998 1.06543C7.50987 0.34554 8.67704 0.34554 9.39693 1.06543L15.5001 7.16856L21.6032 1.06543C22.3231 0.34554 23.4903 0.34554 24.2101 1.06543C24.93 1.78532 24.93 2.95249 24.2101 3.67238L16.8035 11.079C16.0836 11.7989 14.9165 11.7989 14.1966 11.079L6.78998 3.67238C6.07009 2.95249 6.07009 1.78532 6.78998 1.06543Z" fill="#1E1E1E"/>
</g>
</svg>
