<svg width="61" height="61" viewBox="0 0 61 61" fill="none" xmlns="http://www.w3.org/2000/svg">
<path fill-rule="evenodd" clip-rule="evenodd" d="M30.5 57.2383C45.4117 57.2383 57.5 45.15 57.5 30.2383C57.5 15.3266 45.4117 3.23828 30.5 3.23828C15.5883 3.23828 3.5 15.3266 3.5 30.2383C3.5 45.15 15.5883 57.2383 30.5 57.2383ZM30.5 60.2383C47.0685 60.2383 60.5 46.8068 60.5 30.2383C60.5 13.6697 47.0685 0.238281 30.5 0.238281C13.9315 0.238281 0.5 13.6697 0.5 30.2383C0.5 46.8068 13.9315 60.2383 30.5 60.2383Z" fill="white"/>
<path fill-rule="evenodd" clip-rule="evenodd" d="M41.1717 19.6267C39.7856 18.2315 38.1364 17.1252 36.3198 16.3719C34.5031 15.6186 32.555 15.2333 30.5883 15.2383C22.3417 15.2383 15.6283 21.95 15.625 30.2C15.625 32.8367 16.3133 35.41 17.6217 37.68L15.5 45.4317L23.4317 43.35C25.6257 44.5443 28.0837 45.1706 30.5817 45.1717H30.5883C38.8333 45.1717 45.5467 38.46 45.55 30.21C45.5557 28.2441 45.1716 26.2966 44.4201 24.4801C43.6686 22.6635 42.5645 21.0139 41.1717 19.6267ZM30.5883 42.6467H30.5833C28.3559 42.6469 26.1694 42.0476 24.2533 40.9117L23.8 40.6417L19.0933 41.8767L20.3483 37.2883L20.0533 36.8183C18.808 34.8357 18.1487 32.5413 18.1517 30.2C18.155 23.3433 23.7333 17.765 30.5933 17.765C32.2271 17.7614 33.8453 18.0818 35.3544 18.7077C36.8635 19.3337 38.2335 20.2527 39.385 21.4117C40.5427 22.5651 41.4603 23.9365 42.0848 25.4467C42.7093 26.9568 43.0283 28.5758 43.0233 30.21C43.02 37.0667 37.4417 42.6467 30.5883 42.6467ZM37.41 33.3317C37.035 33.1433 35.1983 32.24 34.855 32.115C34.5133 31.99 34.265 31.9283 34.015 32.3017C33.765 32.675 33.0483 33.5167 32.83 33.7667C32.6117 34.0167 32.3933 34.0467 32.02 33.86C31.6467 33.6733 30.4417 33.2783 29.0133 32.005C27.9017 31.0133 27.1517 29.79 26.9333 29.415C26.715 29.04 26.91 28.8383 27.0983 28.6517C27.2667 28.485 27.4717 28.215 27.6583 27.9967C27.845 27.7783 27.9067 27.6233 28.0317 27.3733C28.1567 27.1233 28.095 26.905 28 26.7183C27.9067 26.53 27.1583 24.69 26.8467 23.9417C26.545 23.2167 26.2367 23.3133 26.0067 23.3033C25.7685 23.2936 25.5301 23.2891 25.2917 23.29C25.1021 23.2948 24.9156 23.3388 24.7438 23.4191C24.572 23.4994 24.4186 23.6143 24.2933 23.7567C23.95 24.1317 22.985 25.035 22.985 26.875C22.985 28.715 24.325 30.4933 24.5117 30.7433C24.6983 30.9933 27.1483 34.7683 30.8983 36.3883C31.7917 36.7733 32.4883 37.0033 33.03 37.1767C33.925 37.4617 34.74 37.42 35.385 37.325C36.1033 37.2183 37.5967 36.4217 37.9083 35.5483C38.22 34.675 38.22 33.9267 38.1267 33.77C38.0333 33.6133 37.7817 33.5183 37.41 33.3317Z" fill="white"/>
</svg>
